<svg width="2156" height="2156" viewBox="0 0 2156 2156" fill="none" xmlns="http://www.w3.org/2000/svg">
<path d="M1182 717.5C1146 681.5 1107.8 642.9 1073.9 604.4C1042.2 640.4 1008.7 673.2 975.2 706.7C967.1 714.7 960.5 724.1 955.7 734.4C948.3 750.6 945.9 768.7 948.9 786.3C948.9 788.1 948.9 789.9 948.9 791.7C952 801.4 956.6 810.5 962.6 818.7C963.6 820.1 964.4 821.5 965.1 823C987.1 850.4 1039.3 900.8 1068.5 928.9L1241.5 1109.1L1293.4 1163.9C1336.2 1208.3 1374.8 1256.5 1408.7 1308C1412.8 1315.1 1419.3 1320.3 1427.1 1322.8H1430.7C1439.1 1321.4 1446 1315.4 1448.7 1307.3C1459.9 1271.1 1465.6 1233.5 1465.6 1195.6C1464.6 1107.9 1436.8 1022.7 1386 951.3C1326.1 867.6 1258.1 790.1 1182.8 720L1182 717.5Z" fill="white"/>
<path d="M1230.3 1297.7C1187.4 1245.4 1146 1197.5 1080.8 1128C1025.7 1191.1 975.2 1239.7 933.4 1289.1C859.8 1368.8 864.7 1493 944.4 1566.6C1024.1 1640.2 1148.3 1635.3 1221.9 1555.6C1284.4 1488 1291.5 1386 1239 1310.3C1236.4 1305.8 1233.5 1301.6 1230.3 1297.7Z" fill="white"/>
<path d="M975.9 1042.5C980.7 1037 980.7 1028.9 975.9 1023.4L848.7 893.3L821.3 867.4C799.3 893 778.7 919.8 759.7 947.8C728.9 992.2 706 1041.6 692 1093.7C676.7 1153.7 678.1 1216.8 696.3 1276L698.8 1281.4C702 1287.8 705.6 1293.9 709.6 1299.8C709.6 1299.8 724.4 1323.6 737.3 1324.7H742C746.4 1323.7 750 1320.6 751.7 1316.4C763.7 1291.2 778.7 1267.7 796.4 1246.1L842.9 1189.5L975.9 1042.5Z" fill="white"/>
<path d="M1078.6 0.399965C483.3 0.199965 0.600026 482.6 0.400026 1077.8C0.200026 1673 482.6 2155.8 1077.8 2156C1673.1 2156.2 2155.8 1673.8 2156 1078.6C2156 1078.5 2156 1078.4 2156 1078.2C2156 483.1 1673.7 0.599965 1078.6 0.399965ZM1072.4 1761.8C759.2 1761 505.6 1507.1 505.2 1193.9C505.2 927.6 682.9 750.3 839.2 593.6C943.7 489.1 1043.5 389.6 1073.1 277.6C1102.6 389.7 1202.5 489.1 1307 593.6C1463.8 750.4 1641 927.6 1641 1193.9C1640.7 1507.6 1386.2 1761.8 1072.4 1761.8Z" fill="white"/>
</svg>
